<?xml version="1.0" encoding="utf-8"?>
<!-- Generator: Adobe Illustrator 17.0.0, SVG Export Plug-In . SVG Version: 6.00 Build 0)  -->
<!DOCTYPE svg PUBLIC "-//W3C//DTD SVG 1.1 Tiny//EN" "http://www.w3.org/Graphics/SVG/1.1/DTD/svg11-tiny.dtd">
<svg version="1.1" baseProfile="tiny" id="Calque_1"
	 xmlns="http://www.w3.org/2000/svg" xmlns:xlink="http://www.w3.org/1999/xlink" x="0px" y="0px" width="567.968px"
	 height="224.026px" viewBox="0 0 567.968 224.026" overflow="visible" xml:space="preserve">
<g>
	<path fill="#57B4B5" d="M0,157.392V62.464h11.288l33.048,81.192l32.776-81.192H88.4v94.928H78.064v-70.04l-28.288,70.04H38.76
		L10.472,87.487v69.904H0z"/>
	<path fill="#57B4B5" d="M111.248,124.752c0,7.164,2.289,13.328,6.868,18.496c4.577,5.168,9.904,7.752,15.98,7.752
		c6.617,0,11.445-0.929,14.484-2.788c3.037-1.857,5.78-4.873,8.228-9.044l7.616,5.032c-3.355,5.168-7.255,9.022-11.696,11.56
		c-4.443,2.537-10.563,3.808-18.36,3.808c-8.251,0-15.731-3.468-22.44-10.404c-6.711-6.936-10.064-15.073-10.064-24.412
		c0-9.337,3.309-17.476,9.928-24.412c6.617-6.936,14.053-10.404,22.304-10.404c8.249,0,15.708,3.468,22.372,10.404
		s9.996,15.075,9.996,24.412H111.248z M112.744,116.184h42.84c-1.632-5.168-4.443-9.384-8.432-12.648
		c-3.991-3.264-8.342-4.896-13.056-4.896c-4.715,0-9.044,1.632-12.988,4.896C117.164,106.799,114.376,111.016,112.744,116.184z"/>
	<path fill="#57B4B5" d="M222.496,109.52c-2.991-7.252-7.684-10.88-14.075-10.88c-6.393,0-11.312,2.562-14.757,7.684
		c-3.446,5.123-5.168,11.267-5.168,18.428v32.64h-9.384V92.248h9.384v7.888c5.893-6.8,12.33-10.2,19.312-10.2
		c11.152,0,18.904,5.079,23.256,15.232L222.496,109.52z"/>
</g>
<g>
	<path fill="#C44D58" d="M303.831,0l-81.522,224.026h-20.22L283.61,0H303.831z"/>
</g>
<g>
	<path fill="#566370" d="M289.983,100.136c5.893-6.801,12.329-10.2,19.312-10.2c8.432,0,15.345,2.358,20.739,7.071
		c5.394,4.716,8.093,11.107,8.093,19.177v41.208h-9.385v-41.208c0-5.168-1.882-9.385-5.644-12.648
		c-3.764-3.264-8.5-4.896-14.212-4.896s-10.292,2.562-13.736,7.684c-3.447,5.123-5.168,11.267-5.168,18.428v32.641h-9.384V92.247
		h9.384V100.136z"/>
	<path fill="#566370" d="M350.911,124.819c0-9.384,3.218-17.544,9.656-24.48c6.437-6.936,14.166-10.403,23.188-10.403
		c9.021,0,16.433,4.171,22.236,12.512v-10.2h9.52v62.696c0,9.609-2.472,17.068-7.412,22.372c-4.942,5.304-12.036,7.956-21.284,7.956
		h-21.487v-8.704h21.487c6.346,0,11.129-1.904,14.349-5.712c3.217-3.808,4.828-9.112,4.828-15.912v-7.48
		c-5.532,8.071-12.831,12.104-21.896,12.104c-9.067,0-16.864-3.444-23.392-10.336C354.175,142.342,350.911,134.203,350.911,124.819z
		 M367.027,106.596c-4.487,5.304-6.731,11.355-6.731,18.155c0,6.801,2.244,12.876,6.731,18.225c4.488,5.351,9.86,8.023,16.116,8.023
		s11.628-2.673,16.116-8.023c4.488-5.349,6.732-11.424,6.732-18.225c0-6.8-2.244-12.852-6.732-18.155
		c-4.488-5.305-9.86-7.956-16.116-7.956S371.515,101.291,367.027,106.596z"/>
	<path fill="#566370" d="M480.383,149.503c-5.895,6.801-12.331,10.2-19.312,10.2c-8.432,0-15.347-2.356-20.739-7.071
		c-5.396-4.714-8.093-11.105-8.093-19.177V92.247h9.385v41.208c0,5.168,1.88,9.384,5.644,12.648c3.762,3.264,8.5,4.896,14.212,4.896
		s10.29-2.561,13.736-7.684c3.444-5.121,5.168-11.265,5.168-18.428V92.247h9.384v65.145h-9.384V149.503z"/>
	<path fill="#566370" d="M512.752,124.751c0,7.164,2.289,13.328,6.868,18.496c4.577,5.168,9.905,7.752,15.98,7.752
		c6.617,0,11.445-0.929,14.484-2.788c3.036-1.856,5.779-4.872,8.228-9.044l7.616,5.032c-3.355,5.168-7.255,9.022-11.696,11.561
		c-4.443,2.537-10.563,3.808-18.36,3.808c-8.251,0-15.731-3.468-22.439-10.404c-6.711-6.936-10.064-15.072-10.064-24.412
		c0-9.337,3.309-17.476,9.929-24.412c6.617-6.936,14.052-10.403,22.304-10.403c8.249,0,15.708,3.468,22.372,10.403
		c6.664,6.937,9.996,15.075,9.996,24.412H512.752z M514.248,116.184h42.841c-1.633-5.168-4.443-9.385-8.433-12.648
		c-3.99-3.264-8.343-4.896-13.056-4.896c-4.716,0-9.044,1.632-12.988,4.896S515.88,111.016,514.248,116.184z"/>
</g>
</svg>
